<?xml version="1.0" encoding="UTF-8"?>
<svg xmlns="http://www.w3.org/2000/svg" version="1.1" viewBox="0 0 200 58">
  <defs>
    <style>
      .cls-1 {
        fill: #eda391;
      }

      .cls-2 {
        fill: #fff;
      }
    </style>
  </defs>
  <!-- Generator: Adobe Illustrator 28.7.3, SVG Export Plug-In . SVG Version: 1.2.0 Build 164)  -->
  <g>
    <g id="Layer_1">
      <g>
        <path class="cls-1" d="M118.6,36.4l7.7,5.1c-3.4,4.5-8.8,7.3-15.2,7.3-11.1,0-19.1-8.3-19.1-19.5s8-19.4,19.1-19.4,11.8,2.8,15.2,7.3l-7.7,5.1c-1.6-2-4.1-3.4-7.5-3.4-6.6,0-9.9,5.3-9.9,10.6s3.3,10.6,9.9,10.6,5.9-1.4,7.5-3.5Z"/>
        <path class="cls-1" d="M159.3,23.9c0,8.9-6.8,13-14.9,13h-4.8v11.1h-9.2V10.4h14c9.3,0,14.9,5.4,14.9,13.5ZM149.9,23.9c0-2.9-2-4.8-5.6-4.8h-4.8v9.6h4.8c3.3,0,5.6-1.5,5.6-4.8Z"/>
        <path class="cls-1" d="M181.2,41h-14.2l-2.2,7h-9.7l13.5-37.6h10.9l13.5,37.6h-9.6l-2.2-7ZM179,34l-4.9-15.6-4.9,15.6h9.9Z"/>
        <path class="cls-2" d="M46,10.4l-14,37.6h-6.1L11.9,10.4h5.8l11.2,31.9,11.3-31.9h5.8Z"/>
        <path class="cls-2" d="M69.9,36.5h-21.7c.8,4.5,4.1,7.5,9.4,7.5s5.6-1.1,7.1-3.1l4,2.6c-2.4,3.3-6.4,5.2-11.2,5.2-9,0-14.6-6.4-14.6-14.3s5.8-14.3,13.8-14.3,14.3,6.2,13.1,16.4ZM64.9,32.3c-.6-4.6-3.5-7.6-8.1-7.6s-7.8,3.1-8.6,7.6h16.7Z"/>
        <path class="cls-2" d="M81.7,25.5v11.9c0,3.9,0,6.4,4.3,6.4s1.4,0,2-.1v4.3c-.7.2-1.6.3-2.6.3-5.9,0-8.5-3.2-8.5-9.1v-13.7h-4.2v-4.7h4.2v-5.7h4.9v5.7h6.3v4.7h-6.3Z"/>
      </g>
    </g>
  </g>
</svg>