<?xml version="1.0" encoding="UTF-8"?>
<svg xmlns="http://www.w3.org/2000/svg" version="1.1" viewBox="0 0 537 154">
  <defs>
    <style>
      .cls-1 {
        fill: none;
      }

      .cls-2 {
        fill: #00574a;
      }
    </style>
  </defs>
  <!-- Generator: Adobe Illustrator 28.7.3, SVG Export Plug-In . SVG Version: 1.2.0 Build 164)  -->
  <g>
    <g id="Layer_1">
      <rect class="cls-1" x="-57" y="-48.2" width="648" height="247.7"/>
      <g>
        <path class="cls-2" d="M311.9,95.5l21.4,14.1c-9.4,12.6-24.4,20.3-42.3,20.3-31,0-53.2-23.2-53.2-54.3s22.3-54.1,53.2-54.1,32.9,7.8,42.3,20.2l-21.4,14.1c-4.5-5.7-11.5-9.6-20.9-9.6-18.2,0-27.5,14.7-27.5,29.5s9.3,29.6,27.5,29.6,16.5-3.9,20.9-9.7h0Z"/>
        <path class="cls-2" d="M425.1,60.8c0,24.7-18.8,36.2-41.6,36.2h-13.5v30.9h-25.6V23.3h39c26,0,41.6,14.9,41.6,37.5ZM399.1,60.8c0-8.1-5.7-13.3-15.5-13.3h-13.5v26.6h13.5c9.3,0,15.5-4.2,15.5-13.3Z"/>
        <path class="cls-2" d="M486.1,108.6h-39.6l-6.1,19.4h-26.9l37.7-104.7h30.2l37.7,104.7h-26.8l-6.1-19.4h0ZM480,89.1l-13.8-43.5-13.8,43.5h27.5Z"/>
        <path d="M109.9,23.3l-39,104.7h-16.9L15,23.3h16.2l31.2,88.7,31.4-88.7h16.2Z"/>
        <path d="M176.2,96h-60.3c2.1,12.4,11.4,20.9,26.2,20.9s15.7-3.1,19.9-8.5l11.2,7.2c-6.7,9.1-17.8,14.4-31.1,14.4-25.1,0-40.7-17.9-40.7-39.8s16.1-39.8,38.4-39.8,39.9,17.3,36.3,45.6h0ZM162.5,84.3c-1.8-12.9-9.7-21.1-22.6-21.1s-21.8,8.5-23.9,21.1h46.5Z"/>
        <path d="M209.1,65.2v33.2c0,10.8.1,17.9,12,17.9s3.9-.1,5.5-.3v12c-1.9.4-4.3.8-7.3.8-16.5,0-23.8-8.8-23.8-25.4v-38.1h-11.8v-13h11.8v-15.8h13.6v15.8h17.5v13h-17.5,0Z"/>
      </g>
    </g>
  </g>
</svg>